<?xml version="1.0" encoding="utf-8" standalone="no"?>
<!DOCTYPE svg PUBLIC "-//W3C//DTD SVG 1.1//EN"
  "http://www.w3.org/Graphics/SVG/1.1/DTD/svg11.dtd">
<svg xmlns:xlink="http://www.w3.org/1999/xlink" width="460.8pt" height="345.6pt" viewBox="0 0 460.8 345.6" xmlns="http://www.w3.org/2000/svg" version="1.1">
 <metadata>
  <rdf:RDF xmlns:dc="http://purl.org/dc/elements/1.1/" xmlns:cc="http://creativecommons.org/ns#" xmlns:rdf="http://www.w3.org/1999/02/22-rdf-syntax-ns#">
   <cc:Work>
    <dc:type rdf:resource="http://purl.org/dc/dcmitype/StillImage"/>
    <dc:date>2024-06-10T21:36:38.305197</dc:date>
    <dc:format>image/svg+xml</dc:format>
    <dc:creator>
     <cc:Agent>
      <dc:title>Matplotlib v3.8.4, https://matplotlib.org/</dc:title>
     </cc:Agent>
    </dc:creator>
   </cc:Work>
  </rdf:RDF>
 </metadata>
 <defs>
  <style type="text/css">*{stroke-linejoin: round; stroke-linecap: butt}</style>
 </defs>
 <g id="figure_1">
  <g id="patch_1">
   <path d="M 0 345.6 
L 460.8 345.6 
L 460.8 0 
L 0 0 
z
" style="fill: #ffffff"/>
  </g>
  <g id="axes_1">
   <g id="patch_2">
    <path d="M 57.6 307.584 
L 414.72 307.584 
L 414.72 41.472 
L 57.6 41.472 
z
" style="fill: #ffffff"/>
   </g>
   <g id="matplotlib.axis_1">
    <g id="xtick_1">
     <g id="line2d_1">
      <path d="M 73.832727 307.584 
L 73.832727 41.472 
" clip-path="url(#p6cd1226e9f)" style="fill: none; stroke: #f2f2f2; stroke-width: 0.8; stroke-linecap: square"/>
     </g>
     <g id="line2d_2">
      <defs>
       <path id="ma389538f52" d="M 0 0 
L 0 3.5 
" style="stroke: #000000; stroke-width: 0.8"/>
      </defs>
      <g>
       <use xlink:href="#ma389538f52" x="73.832727" y="307.584" style="stroke: #000000; stroke-width: 0.8"/>
      </g>
     </g>
     <g id="text_1">
      <!-- 0.0 -->
      <g transform="translate(65.881165 322.182437) scale(0.1 -0.1)">
       <defs>
        <path id="DejaVuSans-30" d="M 2034 4250 
Q 1547 4250 1301 3770 
Q 1056 3291 1056 2328 
Q 1056 1369 1301 889 
Q 1547 409 2034 409 
Q 2525 409 2770 889 
Q 3016 1369 3016 2328 
Q 3016 3291 2770 3770 
Q 2525 4250 2034 4250 
z
M 2034 4750 
Q 2819 4750 3233 4129 
Q 3647 3509 3647 2328 
Q 3647 1150 3233 529 
Q 2819 -91 2034 -91 
Q 1250 -91 836 529 
Q 422 1150 422 2328 
Q 422 3509 836 4129 
Q 1250 4750 2034 4750 
z
" transform="scale(0.015625)"/>
        <path id="DejaVuSans-2e" d="M 684 794 
L 1344 794 
L 1344 0 
L 684 0 
L 684 794 
z
" transform="scale(0.015625)"/>
       </defs>
       <use xlink:href="#DejaVuSans-30"/>
       <use xlink:href="#DejaVuSans-2e" x="63.623047"/>
       <use xlink:href="#DejaVuSans-30" x="95.410156"/>
      </g>
     </g>
    </g>
    <g id="xtick_2">
     <g id="line2d_3">
      <path d="M 120.228532 307.584 
L 120.228532 41.472 
" clip-path="url(#p6cd1226e9f)" style="fill: none; stroke: #f2f2f2; stroke-width: 0.8; stroke-linecap: square"/>
     </g>
     <g id="line2d_4">
      <g>
       <use xlink:href="#ma389538f52" x="120.228532" y="307.584" style="stroke: #000000; stroke-width: 0.8"/>
      </g>
     </g>
     <g id="text_2">
      <!-- 0.1 -->
      <g transform="translate(112.276969 322.182437) scale(0.1 -0.1)">
       <defs>
        <path id="DejaVuSans-31" d="M 794 531 
L 1825 531 
L 1825 4091 
L 703 3866 
L 703 4441 
L 1819 4666 
L 2450 4666 
L 2450 531 
L 3481 531 
L 3481 0 
L 794 0 
L 794 531 
z
" transform="scale(0.015625)"/>
       </defs>
       <use xlink:href="#DejaVuSans-30"/>
       <use xlink:href="#DejaVuSans-2e" x="63.623047"/>
       <use xlink:href="#DejaVuSans-31" x="95.410156"/>
      </g>
     </g>
    </g>
    <g id="xtick_3">
     <g id="line2d_5">
      <path d="M 166.624336 307.584 
L 166.624336 41.472 
" clip-path="url(#p6cd1226e9f)" style="fill: none; stroke: #f2f2f2; stroke-width: 0.8; stroke-linecap: square"/>
     </g>
     <g id="line2d_6">
      <g>
       <use xlink:href="#ma389538f52" x="166.624336" y="307.584" style="stroke: #000000; stroke-width: 0.8"/>
      </g>
     </g>
     <g id="text_3">
      <!-- 0.2 -->
      <g transform="translate(158.672774 322.182437) scale(0.1 -0.1)">
       <defs>
        <path id="DejaVuSans-32" d="M 1228 531 
L 3431 531 
L 3431 0 
L 469 0 
L 469 531 
Q 828 903 1448 1529 
Q 2069 2156 2228 2338 
Q 2531 2678 2651 2914 
Q 2772 3150 2772 3378 
Q 2772 3750 2511 3984 
Q 2250 4219 1831 4219 
Q 1534 4219 1204 4116 
Q 875 4013 500 3803 
L 500 4441 
Q 881 4594 1212 4672 
Q 1544 4750 1819 4750 
Q 2544 4750 2975 4387 
Q 3406 4025 3406 3419 
Q 3406 3131 3298 2873 
Q 3191 2616 2906 2266 
Q 2828 2175 2409 1742 
Q 1991 1309 1228 531 
z
" transform="scale(0.015625)"/>
       </defs>
       <use xlink:href="#DejaVuSans-30"/>
       <use xlink:href="#DejaVuSans-2e" x="63.623047"/>
       <use xlink:href="#DejaVuSans-32" x="95.410156"/>
      </g>
     </g>
    </g>
    <g id="xtick_4">
     <g id="line2d_7">
      <path d="M 213.020141 307.584 
L 213.020141 41.472 
" clip-path="url(#p6cd1226e9f)" style="fill: none; stroke: #f2f2f2; stroke-width: 0.8; stroke-linecap: square"/>
     </g>
     <g id="line2d_8">
      <g>
       <use xlink:href="#ma389538f52" x="213.020141" y="307.584" style="stroke: #000000; stroke-width: 0.8"/>
      </g>
     </g>
     <g id="text_4">
      <!-- 0.3 -->
      <g transform="translate(205.068578 322.182437) scale(0.1 -0.1)">
       <defs>
        <path id="DejaVuSans-33" d="M 2597 2516 
Q 3050 2419 3304 2112 
Q 3559 1806 3559 1356 
Q 3559 666 3084 287 
Q 2609 -91 1734 -91 
Q 1441 -91 1130 -33 
Q 819 25 488 141 
L 488 750 
Q 750 597 1062 519 
Q 1375 441 1716 441 
Q 2309 441 2620 675 
Q 2931 909 2931 1356 
Q 2931 1769 2642 2001 
Q 2353 2234 1838 2234 
L 1294 2234 
L 1294 2753 
L 1863 2753 
Q 2328 2753 2575 2939 
Q 2822 3125 2822 3475 
Q 2822 3834 2567 4026 
Q 2313 4219 1838 4219 
Q 1578 4219 1281 4162 
Q 984 4106 628 3988 
L 628 4550 
Q 988 4650 1302 4700 
Q 1616 4750 1894 4750 
Q 2613 4750 3031 4423 
Q 3450 4097 3450 3541 
Q 3450 3153 3228 2886 
Q 3006 2619 2597 2516 
z
" transform="scale(0.015625)"/>
       </defs>
       <use xlink:href="#DejaVuSans-30"/>
       <use xlink:href="#DejaVuSans-2e" x="63.623047"/>
       <use xlink:href="#DejaVuSans-33" x="95.410156"/>
      </g>
     </g>
    </g>
    <g id="xtick_5">
     <g id="line2d_9">
      <path d="M 259.415945 307.584 
L 259.415945 41.472 
" clip-path="url(#p6cd1226e9f)" style="fill: none; stroke: #f2f2f2; stroke-width: 0.8; stroke-linecap: square"/>
     </g>
     <g id="line2d_10">
      <g>
       <use xlink:href="#ma389538f52" x="259.415945" y="307.584" style="stroke: #000000; stroke-width: 0.8"/>
      </g>
     </g>
     <g id="text_5">
      <!-- 0.4 -->
      <g transform="translate(251.464383 322.182437) scale(0.1 -0.1)">
       <defs>
        <path id="DejaVuSans-34" d="M 2419 4116 
L 825 1625 
L 2419 1625 
L 2419 4116 
z
M 2253 4666 
L 3047 4666 
L 3047 1625 
L 3713 1625 
L 3713 1100 
L 3047 1100 
L 3047 0 
L 2419 0 
L 2419 1100 
L 313 1100 
L 313 1709 
L 2253 4666 
z
" transform="scale(0.015625)"/>
       </defs>
       <use xlink:href="#DejaVuSans-30"/>
       <use xlink:href="#DejaVuSans-2e" x="63.623047"/>
       <use xlink:href="#DejaVuSans-34" x="95.410156"/>
      </g>
     </g>
    </g>
    <g id="xtick_6">
     <g id="line2d_11">
      <path d="M 305.81175 307.584 
L 305.81175 41.472 
" clip-path="url(#p6cd1226e9f)" style="fill: none; stroke: #f2f2f2; stroke-width: 0.8; stroke-linecap: square"/>
     </g>
     <g id="line2d_12">
      <g>
       <use xlink:href="#ma389538f52" x="305.81175" y="307.584" style="stroke: #000000; stroke-width: 0.8"/>
      </g>
     </g>
     <g id="text_6">
      <!-- 0.5 -->
      <g transform="translate(297.860187 322.182437) scale(0.1 -0.1)">
       <defs>
        <path id="DejaVuSans-35" d="M 691 4666 
L 3169 4666 
L 3169 4134 
L 1269 4134 
L 1269 2991 
Q 1406 3038 1543 3061 
Q 1681 3084 1819 3084 
Q 2600 3084 3056 2656 
Q 3513 2228 3513 1497 
Q 3513 744 3044 326 
Q 2575 -91 1722 -91 
Q 1428 -91 1123 -41 
Q 819 9 494 109 
L 494 744 
Q 775 591 1075 516 
Q 1375 441 1709 441 
Q 2250 441 2565 725 
Q 2881 1009 2881 1497 
Q 2881 1984 2565 2268 
Q 2250 2553 1709 2553 
Q 1456 2553 1204 2497 
Q 953 2441 691 2322 
L 691 4666 
z
" transform="scale(0.015625)"/>
       </defs>
       <use xlink:href="#DejaVuSans-30"/>
       <use xlink:href="#DejaVuSans-2e" x="63.623047"/>
       <use xlink:href="#DejaVuSans-35" x="95.410156"/>
      </g>
     </g>
    </g>
    <g id="xtick_7">
     <g id="line2d_13">
      <path d="M 352.207554 307.584 
L 352.207554 41.472 
" clip-path="url(#p6cd1226e9f)" style="fill: none; stroke: #f2f2f2; stroke-width: 0.8; stroke-linecap: square"/>
     </g>
     <g id="line2d_14">
      <g>
       <use xlink:href="#ma389538f52" x="352.207554" y="307.584" style="stroke: #000000; stroke-width: 0.8"/>
      </g>
     </g>
     <g id="text_7">
      <!-- 0.6 -->
      <g transform="translate(344.255992 322.182437) scale(0.1 -0.1)">
       <defs>
        <path id="DejaVuSans-36" d="M 2113 2584 
Q 1688 2584 1439 2293 
Q 1191 2003 1191 1497 
Q 1191 994 1439 701 
Q 1688 409 2113 409 
Q 2538 409 2786 701 
Q 3034 994 3034 1497 
Q 3034 2003 2786 2293 
Q 2538 2584 2113 2584 
z
M 3366 4563 
L 3366 3988 
Q 3128 4100 2886 4159 
Q 2644 4219 2406 4219 
Q 1781 4219 1451 3797 
Q 1122 3375 1075 2522 
Q 1259 2794 1537 2939 
Q 1816 3084 2150 3084 
Q 2853 3084 3261 2657 
Q 3669 2231 3669 1497 
Q 3669 778 3244 343 
Q 2819 -91 2113 -91 
Q 1303 -91 875 529 
Q 447 1150 447 2328 
Q 447 3434 972 4092 
Q 1497 4750 2381 4750 
Q 2619 4750 2861 4703 
Q 3103 4656 3366 4563 
z
" transform="scale(0.015625)"/>
       </defs>
       <use xlink:href="#DejaVuSans-30"/>
       <use xlink:href="#DejaVuSans-2e" x="63.623047"/>
       <use xlink:href="#DejaVuSans-36" x="95.410156"/>
      </g>
     </g>
    </g>
    <g id="xtick_8">
     <g id="line2d_15">
      <path d="M 398.603359 307.584 
L 398.603359 41.472 
" clip-path="url(#p6cd1226e9f)" style="fill: none; stroke: #f2f2f2; stroke-width: 0.8; stroke-linecap: square"/>
     </g>
     <g id="line2d_16">
      <g>
       <use xlink:href="#ma389538f52" x="398.603359" y="307.584" style="stroke: #000000; stroke-width: 0.8"/>
      </g>
     </g>
     <g id="text_8">
      <!-- 0.7 -->
      <g transform="translate(390.651796 322.182437) scale(0.1 -0.1)">
       <defs>
        <path id="DejaVuSans-37" d="M 525 4666 
L 3525 4666 
L 3525 4397 
L 1831 0 
L 1172 0 
L 2766 4134 
L 525 4134 
L 525 4666 
z
" transform="scale(0.015625)"/>
       </defs>
       <use xlink:href="#DejaVuSans-30"/>
       <use xlink:href="#DejaVuSans-2e" x="63.623047"/>
       <use xlink:href="#DejaVuSans-37" x="95.410156"/>
      </g>
     </g>
    </g>
    <g id="text_9">
     <!-- precio de $\mathcal{A}_3 (r)$ -->
     <g transform="translate(198.56 335.862125) scale(0.1 -0.1)">
      <defs>
       <path id="DejaVuSans-70" d="M 1159 525 
L 1159 -1331 
L 581 -1331 
L 581 3500 
L 1159 3500 
L 1159 2969 
Q 1341 3281 1617 3432 
Q 1894 3584 2278 3584 
Q 2916 3584 3314 3078 
Q 3713 2572 3713 1747 
Q 3713 922 3314 415 
Q 2916 -91 2278 -91 
Q 1894 -91 1617 61 
Q 1341 213 1159 525 
z
M 3116 1747 
Q 3116 2381 2855 2742 
Q 2594 3103 2138 3103 
Q 1681 3103 1420 2742 
Q 1159 2381 1159 1747 
Q 1159 1113 1420 752 
Q 1681 391 2138 391 
Q 2594 391 2855 752 
Q 3116 1113 3116 1747 
z
" transform="scale(0.015625)"/>
       <path id="DejaVuSans-72" d="M 2631 2963 
Q 2534 3019 2420 3045 
Q 2306 3072 2169 3072 
Q 1681 3072 1420 2755 
Q 1159 2438 1159 1844 
L 1159 0 
L 581 0 
L 581 3500 
L 1159 3500 
L 1159 2956 
Q 1341 3275 1631 3429 
Q 1922 3584 2338 3584 
Q 2397 3584 2469 3576 
Q 2541 3569 2628 3553 
L 2631 2963 
z
" transform="scale(0.015625)"/>
       <path id="DejaVuSans-65" d="M 3597 1894 
L 3597 1613 
L 953 1613 
Q 991 1019 1311 708 
Q 1631 397 2203 397 
Q 2534 397 2845 478 
Q 3156 559 3463 722 
L 3463 178 
Q 3153 47 2828 -22 
Q 2503 -91 2169 -91 
Q 1331 -91 842 396 
Q 353 884 353 1716 
Q 353 2575 817 3079 
Q 1281 3584 2069 3584 
Q 2775 3584 3186 3129 
Q 3597 2675 3597 1894 
z
M 3022 2063 
Q 3016 2534 2758 2815 
Q 2500 3097 2075 3097 
Q 1594 3097 1305 2825 
Q 1016 2553 972 2059 
L 3022 2063 
z
" transform="scale(0.015625)"/>
       <path id="DejaVuSans-63" d="M 3122 3366 
L 3122 2828 
Q 2878 2963 2633 3030 
Q 2388 3097 2138 3097 
Q 1578 3097 1268 2742 
Q 959 2388 959 1747 
Q 959 1106 1268 751 
Q 1578 397 2138 397 
Q 2388 397 2633 464 
Q 2878 531 3122 666 
L 3122 134 
Q 2881 22 2623 -34 
Q 2366 -91 2075 -91 
Q 1284 -91 818 406 
Q 353 903 353 1747 
Q 353 2603 823 3093 
Q 1294 3584 2113 3584 
Q 2378 3584 2631 3529 
Q 2884 3475 3122 3366 
z
" transform="scale(0.015625)"/>
       <path id="DejaVuSans-69" d="M 603 3500 
L 1178 3500 
L 1178 0 
L 603 0 
L 603 3500 
z
M 603 4863 
L 1178 4863 
L 1178 4134 
L 603 4134 
L 603 4863 
z
" transform="scale(0.015625)"/>
       <path id="DejaVuSans-6f" d="M 1959 3097 
Q 1497 3097 1228 2736 
Q 959 2375 959 1747 
Q 959 1119 1226 758 
Q 1494 397 1959 397 
Q 2419 397 2687 759 
Q 2956 1122 2956 1747 
Q 2956 2369 2687 2733 
Q 2419 3097 1959 3097 
z
M 1959 3584 
Q 2709 3584 3137 3096 
Q 3566 2609 3566 1747 
Q 3566 888 3137 398 
Q 2709 -91 1959 -91 
Q 1206 -91 779 398 
Q 353 888 353 1747 
Q 353 2609 779 3096 
Q 1206 3584 1959 3584 
z
" transform="scale(0.015625)"/>
       <path id="DejaVuSans-20" transform="scale(0.015625)"/>
       <path id="DejaVuSans-64" d="M 2906 2969 
L 2906 4863 
L 3481 4863 
L 3481 0 
L 2906 0 
L 2906 525 
Q 2725 213 2448 61 
Q 2172 -91 1784 -91 
Q 1150 -91 751 415 
Q 353 922 353 1747 
Q 353 2572 751 3078 
Q 1150 3584 1784 3584 
Q 2172 3584 2448 3432 
Q 2725 3281 2906 2969 
z
M 947 1747 
Q 947 1113 1208 752 
Q 1469 391 1925 391 
Q 2381 391 2643 752 
Q 2906 1113 2906 1747 
Q 2906 2381 2643 2742 
Q 2381 3103 1925 3103 
Q 1469 3103 1208 2742 
Q 947 2381 947 1747 
z
" transform="scale(0.015625)"/>
       <path id="STIXNonUnicode-Italic-e22d" d="M 5075 416 
L 5197 320 
Q 4928 -198 4365 -198 
Q 4013 -198 3865 74 
Q 3718 346 3706 1024 
L 2182 1024 
Q 2112 922 1961 717 
Q 1811 512 1750 425 
Q 1690 339 1571 192 
Q 1453 45 1382 -16 
Q 1312 -77 1209 -153 
Q 1107 -230 1014 -259 
Q 922 -288 819 -288 
Q 595 -288 435 -131 
Q 275 26 275 243 
Q 275 416 364 521 
Q 454 627 614 627 
Q 717 627 784 572 
Q 851 518 873 457 
Q 896 397 941 342 
Q 986 288 1056 288 
Q 1376 288 1965 1178 
L 4026 4333 
L 4205 4333 
L 4378 883 
Q 4416 198 4691 198 
Q 4941 198 5075 416 
z
M 3699 1280 
L 3616 3232 
L 2330 1280 
Q 2291 1229 2291 1197 
Q 2291 1190 2294 1190 
Q 2298 1190 2298 1184 
Q 2336 1184 2502 1280 
L 3699 1280 
z
" transform="scale(0.015625)"/>
       <path id="DejaVuSans-28" d="M 1984 4856 
Q 1566 4138 1362 3434 
Q 1159 2731 1159 2009 
Q 1159 1288 1364 580 
Q 1569 -128 1984 -844 
L 1484 -844 
Q 1016 -109 783 600 
Q 550 1309 550 2009 
Q 550 2706 781 3412 
Q 1013 4119 1484 4856 
L 1984 4856 
z
" transform="scale(0.015625)"/>
       <path id="DejaVuSans-Oblique-72" d="M 2853 2969 
Q 2766 3016 2653 3041 
Q 2541 3066 2413 3066 
Q 1953 3066 1609 2717 
Q 1266 2369 1153 1784 
L 800 0 
L 225 0 
L 909 3500 
L 1484 3500 
L 1375 2956 
Q 1603 3259 1920 3421 
Q 2238 3584 2597 3584 
Q 2691 3584 2781 3573 
Q 2872 3563 2963 3538 
L 2853 2969 
z
" transform="scale(0.015625)"/>
       <path id="DejaVuSans-29" d="M 513 4856 
L 1013 4856 
Q 1481 4119 1714 3412 
Q 1947 2706 1947 2009 
Q 1947 1309 1714 600 
Q 1481 -109 1013 -844 
L 513 -844 
Q 928 -128 1133 580 
Q 1338 1288 1338 2009 
Q 1338 2731 1133 3434 
Q 928 4138 513 4856 
z
" transform="scale(0.015625)"/>
      </defs>
      <use xlink:href="#DejaVuSans-70" transform="translate(0 0.015625)"/>
      <use xlink:href="#DejaVuSans-72" transform="translate(63.476562 0.015625)"/>
      <use xlink:href="#DejaVuSans-65" transform="translate(104.589844 0.015625)"/>
      <use xlink:href="#DejaVuSans-63" transform="translate(166.113281 0.015625)"/>
      <use xlink:href="#DejaVuSans-69" transform="translate(221.09375 0.015625)"/>
      <use xlink:href="#DejaVuSans-6f" transform="translate(248.876953 0.015625)"/>
      <use xlink:href="#DejaVuSans-20" transform="translate(310.058594 0.015625)"/>
      <use xlink:href="#DejaVuSans-64" transform="translate(341.845703 0.015625)"/>
      <use xlink:href="#DejaVuSans-65" transform="translate(405.322266 0.015625)"/>
      <use xlink:href="#DejaVuSans-20" transform="translate(466.845703 0.015625)"/>
      <use xlink:href="#STIXNonUnicode-Italic-e22d" transform="translate(498.632812 0.015625)"/>
      <use xlink:href="#DejaVuSans-33" transform="translate(584.789825 -16.390625) scale(0.7)"/>
      <use xlink:href="#DejaVuSans-28" transform="translate(632.060333 0.015625)"/>
      <use xlink:href="#DejaVuSans-Oblique-72" transform="translate(671.074005 0.015625)"/>
      <use xlink:href="#DejaVuSans-29" transform="translate(712.187286 0.015625)"/>
     </g>
    </g>
   </g>
   <g id="matplotlib.axis_2">
    <g id="ytick_1">
     <g id="line2d_17">
      <path d="M 57.6 295.574503 
L 414.72 295.574503 
" clip-path="url(#p6cd1226e9f)" style="fill: none; stroke: #f2f2f2; stroke-width: 0.8; stroke-linecap: square"/>
     </g>
     <g id="line2d_18">
      <defs>
       <path id="m9aff3cf9d2" d="M 0 0 
L -3.5 0 
" style="stroke: #000000; stroke-width: 0.8"/>
      </defs>
      <g>
       <use xlink:href="#m9aff3cf9d2" x="57.6" y="295.574503" style="stroke: #000000; stroke-width: 0.8"/>
      </g>
     </g>
     <g id="text_10">
      <!-- 0.3 -->
      <g transform="translate(34.696875 299.373722) scale(0.1 -0.1)">
       <use xlink:href="#DejaVuSans-30"/>
       <use xlink:href="#DejaVuSans-2e" x="63.623047"/>
       <use xlink:href="#DejaVuSans-33" x="95.410156"/>
      </g>
     </g>
    </g>
    <g id="ytick_2">
     <g id="line2d_19">
      <path d="M 57.6 261.002145 
L 414.72 261.002145 
" clip-path="url(#p6cd1226e9f)" style="fill: none; stroke: #f2f2f2; stroke-width: 0.8; stroke-linecap: square"/>
     </g>
     <g id="line2d_20">
      <g>
       <use xlink:href="#m9aff3cf9d2" x="57.6" y="261.002145" style="stroke: #000000; stroke-width: 0.8"/>
      </g>
     </g>
     <g id="text_11">
      <!-- 0.4 -->
      <g transform="translate(34.696875 264.801364) scale(0.1 -0.1)">
       <use xlink:href="#DejaVuSans-30"/>
       <use xlink:href="#DejaVuSans-2e" x="63.623047"/>
       <use xlink:href="#DejaVuSans-34" x="95.410156"/>
      </g>
     </g>
    </g>
    <g id="ytick_3">
     <g id="line2d_21">
      <path d="M 57.6 226.429788 
L 414.72 226.429788 
" clip-path="url(#p6cd1226e9f)" style="fill: none; stroke: #f2f2f2; stroke-width: 0.8; stroke-linecap: square"/>
     </g>
     <g id="line2d_22">
      <g>
       <use xlink:href="#m9aff3cf9d2" x="57.6" y="226.429788" style="stroke: #000000; stroke-width: 0.8"/>
      </g>
     </g>
     <g id="text_12">
      <!-- 0.5 -->
      <g transform="translate(34.696875 230.229007) scale(0.1 -0.1)">
       <use xlink:href="#DejaVuSans-30"/>
       <use xlink:href="#DejaVuSans-2e" x="63.623047"/>
       <use xlink:href="#DejaVuSans-35" x="95.410156"/>
      </g>
     </g>
    </g>
    <g id="ytick_4">
     <g id="line2d_23">
      <path d="M 57.6 191.85743 
L 414.72 191.85743 
" clip-path="url(#p6cd1226e9f)" style="fill: none; stroke: #f2f2f2; stroke-width: 0.8; stroke-linecap: square"/>
     </g>
     <g id="line2d_24">
      <g>
       <use xlink:href="#m9aff3cf9d2" x="57.6" y="191.85743" style="stroke: #000000; stroke-width: 0.8"/>
      </g>
     </g>
     <g id="text_13">
      <!-- 0.6 -->
      <g transform="translate(34.696875 195.656649) scale(0.1 -0.1)">
       <use xlink:href="#DejaVuSans-30"/>
       <use xlink:href="#DejaVuSans-2e" x="63.623047"/>
       <use xlink:href="#DejaVuSans-36" x="95.410156"/>
      </g>
     </g>
    </g>
    <g id="ytick_5">
     <g id="line2d_25">
      <path d="M 57.6 157.285073 
L 414.72 157.285073 
" clip-path="url(#p6cd1226e9f)" style="fill: none; stroke: #f2f2f2; stroke-width: 0.8; stroke-linecap: square"/>
     </g>
     <g id="line2d_26">
      <g>
       <use xlink:href="#m9aff3cf9d2" x="57.6" y="157.285073" style="stroke: #000000; stroke-width: 0.8"/>
      </g>
     </g>
     <g id="text_14">
      <!-- 0.7 -->
      <g transform="translate(34.696875 161.084291) scale(0.1 -0.1)">
       <use xlink:href="#DejaVuSans-30"/>
       <use xlink:href="#DejaVuSans-2e" x="63.623047"/>
       <use xlink:href="#DejaVuSans-37" x="95.410156"/>
      </g>
     </g>
    </g>
    <g id="ytick_6">
     <g id="line2d_27">
      <path d="M 57.6 122.712715 
L 414.72 122.712715 
" clip-path="url(#p6cd1226e9f)" style="fill: none; stroke: #f2f2f2; stroke-width: 0.8; stroke-linecap: square"/>
     </g>
     <g id="line2d_28">
      <g>
       <use xlink:href="#m9aff3cf9d2" x="57.6" y="122.712715" style="stroke: #000000; stroke-width: 0.8"/>
      </g>
     </g>
     <g id="text_15">
      <!-- 0.8 -->
      <g transform="translate(34.696875 126.511934) scale(0.1 -0.1)">
       <defs>
        <path id="DejaVuSans-38" d="M 2034 2216 
Q 1584 2216 1326 1975 
Q 1069 1734 1069 1313 
Q 1069 891 1326 650 
Q 1584 409 2034 409 
Q 2484 409 2743 651 
Q 3003 894 3003 1313 
Q 3003 1734 2745 1975 
Q 2488 2216 2034 2216 
z
M 1403 2484 
Q 997 2584 770 2862 
Q 544 3141 544 3541 
Q 544 4100 942 4425 
Q 1341 4750 2034 4750 
Q 2731 4750 3128 4425 
Q 3525 4100 3525 3541 
Q 3525 3141 3298 2862 
Q 3072 2584 2669 2484 
Q 3125 2378 3379 2068 
Q 3634 1759 3634 1313 
Q 3634 634 3220 271 
Q 2806 -91 2034 -91 
Q 1263 -91 848 271 
Q 434 634 434 1313 
Q 434 1759 690 2068 
Q 947 2378 1403 2484 
z
M 1172 3481 
Q 1172 3119 1398 2916 
Q 1625 2713 2034 2713 
Q 2441 2713 2670 2916 
Q 2900 3119 2900 3481 
Q 2900 3844 2670 4047 
Q 2441 4250 2034 4250 
Q 1625 4250 1398 4047 
Q 1172 3844 1172 3481 
z
" transform="scale(0.015625)"/>
       </defs>
       <use xlink:href="#DejaVuSans-30"/>
       <use xlink:href="#DejaVuSans-2e" x="63.623047"/>
       <use xlink:href="#DejaVuSans-38" x="95.410156"/>
      </g>
     </g>
    </g>
    <g id="ytick_7">
     <g id="line2d_29">
      <path d="M 57.6 88.140358 
L 414.72 88.140358 
" clip-path="url(#p6cd1226e9f)" style="fill: none; stroke: #f2f2f2; stroke-width: 0.8; stroke-linecap: square"/>
     </g>
     <g id="line2d_30">
      <g>
       <use xlink:href="#m9aff3cf9d2" x="57.6" y="88.140358" style="stroke: #000000; stroke-width: 0.8"/>
      </g>
     </g>
     <g id="text_16">
      <!-- 0.9 -->
      <g transform="translate(34.696875 91.939576) scale(0.1 -0.1)">
       <defs>
        <path id="DejaVuSans-39" d="M 703 97 
L 703 672 
Q 941 559 1184 500 
Q 1428 441 1663 441 
Q 2288 441 2617 861 
Q 2947 1281 2994 2138 
Q 2813 1869 2534 1725 
Q 2256 1581 1919 1581 
Q 1219 1581 811 2004 
Q 403 2428 403 3163 
Q 403 3881 828 4315 
Q 1253 4750 1959 4750 
Q 2769 4750 3195 4129 
Q 3622 3509 3622 2328 
Q 3622 1225 3098 567 
Q 2575 -91 1691 -91 
Q 1453 -91 1209 -44 
Q 966 3 703 97 
z
M 1959 2075 
Q 2384 2075 2632 2365 
Q 2881 2656 2881 3163 
Q 2881 3666 2632 3958 
Q 2384 4250 1959 4250 
Q 1534 4250 1286 3958 
Q 1038 3666 1038 3163 
Q 1038 2656 1286 2365 
Q 1534 2075 1959 2075 
z
" transform="scale(0.015625)"/>
       </defs>
       <use xlink:href="#DejaVuSans-30"/>
       <use xlink:href="#DejaVuSans-2e" x="63.623047"/>
       <use xlink:href="#DejaVuSans-39" x="95.410156"/>
      </g>
     </g>
    </g>
    <g id="ytick_8">
     <g id="line2d_31">
      <path d="M 57.6 53.568 
L 414.72 53.568 
" clip-path="url(#p6cd1226e9f)" style="fill: none; stroke: #f2f2f2; stroke-width: 0.8; stroke-linecap: square"/>
     </g>
     <g id="line2d_32">
      <g>
       <use xlink:href="#m9aff3cf9d2" x="57.6" y="53.568" style="stroke: #000000; stroke-width: 0.8"/>
      </g>
     </g>
     <g id="text_17">
      <!-- 1.0 -->
      <g transform="translate(34.696875 57.367219) scale(0.1 -0.1)">
       <use xlink:href="#DejaVuSans-31"/>
       <use xlink:href="#DejaVuSans-2e" x="63.623047"/>
       <use xlink:href="#DejaVuSans-30" x="95.410156"/>
      </g>
     </g>
    </g>
    <g id="text_18">
     <!-- precio de $\mathcal{A}_2 (p_2)$ -->
     <g transform="translate(28.596875 215.578) rotate(-90) scale(0.1 -0.1)">
      <defs>
       <path id="DejaVuSans-Oblique-70" d="M 3175 2156 
Q 3175 2616 2975 2859 
Q 2775 3103 2400 3103 
Q 2144 3103 1911 2972 
Q 1678 2841 1497 2591 
Q 1319 2344 1212 1994 
Q 1106 1644 1106 1300 
Q 1106 863 1306 627 
Q 1506 391 1875 391 
Q 2147 391 2380 519 
Q 2613 647 2778 891 
Q 2956 1147 3065 1494 
Q 3175 1841 3175 2156 
z
M 1394 2969 
Q 1625 3272 1939 3428 
Q 2253 3584 2638 3584 
Q 3175 3584 3472 3232 
Q 3769 2881 3769 2247 
Q 3769 1728 3584 1258 
Q 3400 788 3053 416 
Q 2822 169 2531 39 
Q 2241 -91 1919 -91 
Q 1547 -91 1294 64 
Q 1041 219 916 525 
L 556 -1331 
L -19 -1331 
L 922 3500 
L 1497 3500 
L 1394 2969 
z
" transform="scale(0.015625)"/>
      </defs>
      <use xlink:href="#DejaVuSans-70" transform="translate(0 0.015625)"/>
      <use xlink:href="#DejaVuSans-72" transform="translate(63.476562 0.015625)"/>
      <use xlink:href="#DejaVuSans-65" transform="translate(104.589844 0.015625)"/>
      <use xlink:href="#DejaVuSans-63" transform="translate(166.113281 0.015625)"/>
      <use xlink:href="#DejaVuSans-69" transform="translate(221.09375 0.015625)"/>
      <use xlink:href="#DejaVuSans-6f" transform="translate(248.876953 0.015625)"/>
      <use xlink:href="#DejaVuSans-20" transform="translate(310.058594 0.015625)"/>
      <use xlink:href="#DejaVuSans-64" transform="translate(341.845703 0.015625)"/>
      <use xlink:href="#DejaVuSans-65" transform="translate(405.322266 0.015625)"/>
      <use xlink:href="#DejaVuSans-20" transform="translate(466.845703 0.015625)"/>
      <use xlink:href="#STIXNonUnicode-Italic-e22d" transform="translate(498.632812 0.015625)"/>
      <use xlink:href="#DejaVuSans-32" transform="translate(584.789825 -16.390625) scale(0.7)"/>
      <use xlink:href="#DejaVuSans-28" transform="translate(632.060333 0.015625)"/>
      <use xlink:href="#DejaVuSans-Oblique-70" transform="translate(671.074005 0.015625)"/>
      <use xlink:href="#DejaVuSans-32" transform="translate(734.550568 -16.390625) scale(0.7)"/>
      <use xlink:href="#DejaVuSans-29" transform="translate(781.821075 0.015625)"/>
     </g>
    </g>
   </g>
   <g id="line2d_33">
    <path d="M 73.832727 53.568 
L 145.032294 106.484691 
L 398.487273 106.484691 
L 398.487273 106.484691 
" clip-path="url(#p6cd1226e9f)" style="fill: none; stroke: #000000; stroke-width: 1.5; stroke-linecap: square"/>
   </g>
   <g id="line2d_34">
    <path d="M 250.504754 295.488 
L 245.908047 294.046284 
L 243.572426 290.586164 
L 241.127545 286.549359 
L 238.600813 281.935867 
L 235.858076 276.457344 
L 232.655355 269.537106 
L 228.65173 260.310122 
L 222.673279 245.892958 
L 207.323507 208.696677 
L 199.899334 191.396081 
L 192.851459 175.537201 
L 186.077024 160.831695 
L 179.327214 146.702875 
L 172.610743 133.150741 
L 167.743133 123.635414 
L 167.088681 123.058727 
L 77.315315 56.163089 
L 77.159166 55.874746 
L 77.159166 53.856343 
L 73.879123 53.568 
L 73.879123 53.568 
" clip-path="url(#p6cd1226e9f)" style="fill: none; stroke-dasharray: 5.55,2.4; stroke-dashoffset: 0; stroke: #ffa500; stroke-width: 1.5"/>
   </g>
   <g id="line2d_35">
    <defs>
     <path id="mfba35fc030" d="M 0 2.5 
C 0.663008 2.5 1.29895 2.236584 1.767767 1.767767 
C 2.236584 1.29895 2.5 0.663008 2.5 0 
C 2.5 -0.663008 2.236584 -1.29895 1.767767 -1.767767 
C 1.29895 -2.236584 0.663008 -2.5 0 -2.5 
C -0.663008 -2.5 -1.29895 -2.236584 -1.767767 -1.767767 
C -2.236584 -1.29895 -2.5 -0.663008 -2.5 0 
C -2.5 0.663008 -2.236584 1.29895 -1.767767 1.767767 
C -1.29895 2.236584 -0.663008 2.5 0 2.5 
z
" style="stroke: #ff0000"/>
    </defs>
    <g clip-path="url(#p6cd1226e9f)">
     <use xlink:href="#mfba35fc030" x="77.54666" y="56.335479" style="fill: #ff0000; stroke: #ff0000"/>
     <use xlink:href="#mfba35fc030" x="78.355215" y="56.937983" style="fill: #ff0000; stroke: #ff0000"/>
     <use xlink:href="#mfba35fc030" x="78.722912" y="57.211976" style="fill: #ff0000; stroke: #ff0000"/>
     <use xlink:href="#mfba35fc030" x="79.146916" y="57.527928" style="fill: #ff0000; stroke: #ff0000"/>
     <use xlink:href="#mfba35fc030" x="80.254172" y="58.353012" style="fill: #ff0000; stroke: #ff0000"/>
     <use xlink:href="#mfba35fc030" x="81.119513" y="58.99783" style="fill: #ff0000; stroke: #ff0000"/>
     <use xlink:href="#mfba35fc030" x="81.454303" y="59.247303" style="fill: #ff0000; stroke: #ff0000"/>
     <use xlink:href="#mfba35fc030" x="82.752658" y="60.214787" style="fill: #ff0000; stroke: #ff0000"/>
     <use xlink:href="#mfba35fc030" x="83.474549" y="60.752712" style="fill: #ff0000; stroke: #ff0000"/>
     <use xlink:href="#mfba35fc030" x="84.299371" y="61.367338" style="fill: #ff0000; stroke: #ff0000"/>
     <use xlink:href="#mfba35fc030" x="85.023431" y="61.906879" style="fill: #ff0000; stroke: #ff0000"/>
     <use xlink:href="#mfba35fc030" x="85.084301" y="61.952237" style="fill: #ff0000; stroke: #ff0000"/>
     <use xlink:href="#mfba35fc030" x="85.811114" y="62.49383" style="fill: #ff0000; stroke: #ff0000"/>
     <use xlink:href="#mfba35fc030" x="85.976817" y="62.617305" style="fill: #ff0000; stroke: #ff0000"/>
     <use xlink:href="#mfba35fc030" x="86.23548" y="62.810051" style="fill: #ff0000; stroke: #ff0000"/>
     <use xlink:href="#mfba35fc030" x="86.793173" y="63.225622" style="fill: #ff0000; stroke: #ff0000"/>
     <use xlink:href="#mfba35fc030" x="87.36558" y="63.652158" style="fill: #ff0000; stroke: #ff0000"/>
     <use xlink:href="#mfba35fc030" x="87.400674" y="63.678309" style="fill: #ff0000; stroke: #ff0000"/>
     <use xlink:href="#mfba35fc030" x="87.918709" y="64.064328" style="fill: #ff0000; stroke: #ff0000"/>
     <use xlink:href="#mfba35fc030" x="88.633172" y="64.596719" style="fill: #ff0000; stroke: #ff0000"/>
     <use xlink:href="#mfba35fc030" x="89.048808" y="64.906435" style="fill: #ff0000; stroke: #ff0000"/>
     <use xlink:href="#mfba35fc030" x="89.540797" y="65.273046" style="fill: #ff0000; stroke: #ff0000"/>
     <use xlink:href="#mfba35fc030" x="90.390577" y="65.906269" style="fill: #ff0000; stroke: #ff0000"/>
     <use xlink:href="#mfba35fc030" x="92.364041" y="67.376818" style="fill: #ff0000; stroke: #ff0000"/>
     <use xlink:href="#mfba35fc030" x="92.607445" y="67.558193" style="fill: #ff0000; stroke: #ff0000"/>
     <use xlink:href="#mfba35fc030" x="93.19131" y="67.993267" style="fill: #ff0000; stroke: #ff0000"/>
     <use xlink:href="#mfba35fc030" x="93.925941" y="68.540685" style="fill: #ff0000; stroke: #ff0000"/>
     <use xlink:href="#mfba35fc030" x="94.026252" y="68.615433" style="fill: #ff0000; stroke: #ff0000"/>
     <use xlink:href="#mfba35fc030" x="94.48951" y="68.960635" style="fill: #ff0000; stroke: #ff0000"/>
     <use xlink:href="#mfba35fc030" x="97.069442" y="70.8831" style="fill: #ff0000; stroke: #ff0000"/>
     <use xlink:href="#mfba35fc030" x="98.178811" y="71.709759" style="fill: #ff0000; stroke: #ff0000"/>
     <use xlink:href="#mfba35fc030" x="98.278923" y="71.784359" style="fill: #ff0000; stroke: #ff0000"/>
     <use xlink:href="#mfba35fc030" x="98.747803" y="72.13375" style="fill: #ff0000; stroke: #ff0000"/>
     <use xlink:href="#mfba35fc030" x="101.545638" y="74.218589" style="fill: #ff0000; stroke: #ff0000"/>
     <use xlink:href="#mfba35fc030" x="102.437106" y="74.882876" style="fill: #ff0000; stroke: #ff0000"/>
     <use xlink:href="#mfba35fc030" x="102.531593" y="74.953284" style="fill: #ff0000; stroke: #ff0000"/>
     <use xlink:href="#mfba35fc030" x="103.0061" y="75.306868" style="fill: #ff0000; stroke: #ff0000"/>
     <use xlink:href="#mfba35fc030" x="106.201709" y="77.688112" style="fill: #ff0000; stroke: #ff0000"/>
     <use xlink:href="#mfba35fc030" x="106.6954" y="78.055992" style="fill: #ff0000; stroke: #ff0000"/>
     <use xlink:href="#mfba35fc030" x="106.784266" y="78.122211" style="fill: #ff0000; stroke: #ff0000"/>
     <use xlink:href="#mfba35fc030" x="107.264395" y="78.479985" style="fill: #ff0000; stroke: #ff0000"/>
     <use xlink:href="#mfba35fc030" x="107.993745" y="79.023468" style="fill: #ff0000; stroke: #ff0000"/>
     <use xlink:href="#mfba35fc030" x="108.402384" y="79.32797" style="fill: #ff0000; stroke: #ff0000"/>
     <use xlink:href="#mfba35fc030" x="111.036939" y="81.291139" style="fill: #ff0000; stroke: #ff0000"/>
     <use xlink:href="#mfba35fc030" x="112.091684" y="82.077093" style="fill: #ff0000; stroke: #ff0000"/>
     <use xlink:href="#mfba35fc030" x="112.246422" y="82.192398" style="fill: #ff0000; stroke: #ff0000"/>
     <use xlink:href="#mfba35fc030" x="112.660679" y="82.501087" style="fill: #ff0000; stroke: #ff0000"/>
     <use xlink:href="#mfba35fc030" x="115.490775" y="84.609965" style="fill: #ff0000; stroke: #ff0000"/>
     <use xlink:href="#mfba35fc030" x="116.34998" y="85.250211" style="fill: #ff0000; stroke: #ff0000"/>
     <use xlink:href="#mfba35fc030" x="116.499093" y="85.361324" style="fill: #ff0000; stroke: #ff0000"/>
     <use xlink:href="#mfba35fc030" x="116.918972" y="85.674202" style="fill: #ff0000; stroke: #ff0000"/>
     <use xlink:href="#mfba35fc030" x="120.138648" y="88.07338" style="fill: #ff0000; stroke: #ff0000"/>
     <use xlink:href="#mfba35fc030" x="120.608272" y="88.423326" style="fill: #ff0000; stroke: #ff0000"/>
     <use xlink:href="#mfba35fc030" x="120.751767" y="88.530252" style="fill: #ff0000; stroke: #ff0000"/>
     <use xlink:href="#mfba35fc030" x="121.177269" y="88.84732" style="fill: #ff0000; stroke: #ff0000"/>
     <use xlink:href="#mfba35fc030" x="121.961249" y="89.431511" style="fill: #ff0000; stroke: #ff0000"/>
     <use xlink:href="#mfba35fc030" x="122.315256" y="89.695304" style="fill: #ff0000; stroke: #ff0000"/>
     <use xlink:href="#mfba35fc030" x="125.004439" y="91.699179" style="fill: #ff0000; stroke: #ff0000"/>
     <use xlink:href="#mfba35fc030" x="126.004557" y="92.444428" style="fill: #ff0000; stroke: #ff0000"/>
     <use xlink:href="#mfba35fc030" x="126.213924" y="92.60044" style="fill: #ff0000; stroke: #ff0000"/>
     <use xlink:href="#mfba35fc030" x="126.573549" y="92.868419" style="fill: #ff0000; stroke: #ff0000"/>
     <use xlink:href="#mfba35fc030" x="129.435911" y="95.00134" style="fill: #ff0000; stroke: #ff0000"/>
     <use xlink:href="#mfba35fc030" x="130.262851" y="95.617544" style="fill: #ff0000; stroke: #ff0000"/>
     <use xlink:href="#mfba35fc030" x="130.466594" y="95.769365" style="fill: #ff0000; stroke: #ff0000"/>
     <use xlink:href="#mfba35fc030" x="130.831846" y="96.041537" style="fill: #ff0000; stroke: #ff0000"/>
     <use xlink:href="#mfba35fc030" x="134.075588" y="98.458648" style="fill: #ff0000; stroke: #ff0000"/>
     <use xlink:href="#mfba35fc030" x="134.521143" y="98.790658" style="fill: #ff0000; stroke: #ff0000"/>
     <use xlink:href="#mfba35fc030" x="134.71927" y="98.938295" style="fill: #ff0000; stroke: #ff0000"/>
     <use xlink:href="#mfba35fc030" x="135.090141" y="99.214653" style="fill: #ff0000; stroke: #ff0000"/>
     <use xlink:href="#mfba35fc030" x="135.928753" y="99.839554" style="fill: #ff0000; stroke: #ff0000"/>
     <use xlink:href="#mfba35fc030" x="136.228128" y="100.062637" style="fill: #ff0000; stroke: #ff0000"/>
     <use xlink:href="#mfba35fc030" x="138.649728" y="101.86712" style="fill: #ff0000; stroke: #ff0000"/>
     <use xlink:href="#mfba35fc030" x="139.917431" y="102.811763" style="fill: #ff0000; stroke: #ff0000"/>
     <use xlink:href="#mfba35fc030" x="140.181419" y="103.008477" style="fill: #ff0000; stroke: #ff0000"/>
     <use xlink:href="#mfba35fc030" x="140.486425" y="103.235756" style="fill: #ff0000; stroke: #ff0000"/>
     <use xlink:href="#mfba35fc030" x="143.381048" y="105.392716" style="fill: #ff0000; stroke: #ff0000"/>
     <use xlink:href="#mfba35fc030" x="144.17572" y="105.984875" style="fill: #ff0000; stroke: #ff0000"/>
     <use xlink:href="#mfba35fc030" x="144.434102" y="106.177412" style="fill: #ff0000; stroke: #ff0000"/>
     <use xlink:href="#mfba35fc030" x="144.64534" y="106.334818" style="fill: #ff0000; stroke: #ff0000"/>
    </g>
   </g>
   <g id="line2d_36">
    <defs>
     <path id="m72c582d2fa" d="M 0 1.5 
C 0.397805 1.5 0.77937 1.341951 1.06066 1.06066 
C 1.341951 0.77937 1.5 0.397805 1.5 0 
C 1.5 -0.397805 1.341951 -0.77937 1.06066 -1.06066 
C 0.77937 -1.341951 0.397805 -1.5 0 -1.5 
C -0.397805 -1.5 -0.77937 -1.341951 -1.06066 -1.06066 
C -1.341951 -0.77937 -1.5 -0.397805 -1.5 0 
C -1.5 0.397805 -1.341951 0.77937 -1.06066 1.06066 
C -0.77937 1.341951 -0.397805 1.5 0 1.5 
z
" style="stroke: #0000ff"/>
    </defs>
    <g clip-path="url(#p6cd1226e9f)">
     <use xlink:href="#m72c582d2fa" x="116.726604" y="85.530857" style="fill: #0000ff; stroke: #0000ff"/>
    </g>
   </g>
   <g id="patch_3">
    <path d="M 57.6 307.584 
L 57.6 41.472 
" style="fill: none; stroke: #000000; stroke-width: 0.8; stroke-linejoin: miter; stroke-linecap: square"/>
   </g>
   <g id="patch_4">
    <path d="M 414.72 307.584 
L 414.72 41.472 
" style="fill: none; stroke: #000000; stroke-width: 0.8; stroke-linejoin: miter; stroke-linecap: square"/>
   </g>
   <g id="patch_5">
    <path d="M 57.6 307.584 
L 414.72 307.584 
" style="fill: none; stroke: #000000; stroke-width: 0.8; stroke-linejoin: miter; stroke-linecap: square"/>
   </g>
   <g id="patch_6">
    <path d="M 57.6 41.472 
L 414.72 41.472 
" style="fill: none; stroke: #000000; stroke-width: 0.8; stroke-linejoin: miter; stroke-linecap: square"/>
   </g>
   <g id="legend_1">
    <g id="patch_7">
     <path d="M 345.72 82.572 
L 407.72 82.572 
Q 409.72 82.572 409.72 80.572 
L 409.72 48.472 
Q 409.72 46.472 407.72 46.472 
L 345.72 46.472 
Q 343.72 46.472 343.72 48.472 
L 343.72 80.572 
Q 343.72 82.572 345.72 82.572 
z
" style="fill: #ffffff; opacity: 0.8; stroke: #cccccc; stroke-linejoin: miter"/>
    </g>
    <g id="line2d_37">
     <path d="M 347.72 56.072 
L 357.72 56.072 
L 367.72 56.072 
" style="fill: none; stroke: #000000; stroke-width: 1.5; stroke-linecap: square"/>
    </g>
    <g id="text_19">
     <!-- $p_2^*(r)$ -->
     <g transform="translate(375.72 59.572) scale(0.1 -0.1)">
      <defs>
       <path id="DejaVuSans-2a" d="M 3009 3897 
L 1888 3291 
L 3009 2681 
L 2828 2375 
L 1778 3009 
L 1778 1831 
L 1422 1831 
L 1422 3009 
L 372 2375 
L 191 2681 
L 1313 3291 
L 191 3897 
L 372 4206 
L 1422 3572 
L 1422 4750 
L 1778 4750 
L 1778 3572 
L 2828 4206 
L 3009 3897 
z
" transform="scale(0.015625)"/>
      </defs>
      <use xlink:href="#DejaVuSans-Oblique-70" transform="translate(0 0.765625)"/>
      <use xlink:href="#DejaVuSans-2a" transform="translate(81.764154 39.046875) scale(0.7)"/>
      <use xlink:href="#DejaVuSans-32" transform="translate(63.476562 -26.578125) scale(0.7)"/>
      <use xlink:href="#DejaVuSans-28" transform="translate(133.136224 0.765625)"/>
      <use xlink:href="#DejaVuSans-Oblique-72" transform="translate(172.149896 0.765625)"/>
      <use xlink:href="#DejaVuSans-29" transform="translate(213.263177 0.765625)"/>
     </g>
    </g>
    <g id="line2d_38">
     <path d="M 347.72 72.972 
L 357.72 72.972 
L 367.72 72.972 
" style="fill: none; stroke-dasharray: 5.55,2.4; stroke-dashoffset: 0; stroke: #ffa500; stroke-width: 1.5"/>
    </g>
    <g id="text_20">
     <!-- $r^*(p_2)$ -->
     <g transform="translate(375.72 76.472) scale(0.1 -0.1)">
      <use xlink:href="#DejaVuSans-Oblique-72" transform="translate(0 0.765625)"/>
      <use xlink:href="#DejaVuSans-2a" transform="translate(59.400872 39.046875) scale(0.7)"/>
      <use xlink:href="#DejaVuSans-28" transform="translate(110.772943 0.765625)"/>
      <use xlink:href="#DejaVuSans-Oblique-70" transform="translate(149.786615 0.765625)"/>
      <use xlink:href="#DejaVuSans-32" transform="translate(213.263177 -15.640625) scale(0.7)"/>
      <use xlink:href="#DejaVuSans-29" transform="translate(260.533685 0.765625)"/>
     </g>
    </g>
   </g>
  </g>
 </g>
 <defs>
  <clipPath id="p6cd1226e9f">
   <rect x="57.6" y="41.472" width="357.12" height="266.112"/>
  </clipPath>
 </defs>
</svg>
